HIERARCHY
ROOT SpineBase
{
  OFFSET 0.000000 0.000000 0.000000
  CHANNELS 6 Xposition Yposition Zposition Zrotation Xrotation Yrotation
  JOINT SpineMid
  {
    OFFSET -0.000000 29.614836 0.000000
    CHANNELS 3 Zrotation Xrotation Yrotation
    JOINT SpineShoulder
    {
      OFFSET 0.124072 22.084006 -0.748235
      CHANNELS 3 Zrotation Xrotation Yrotation
      JOINT Neck
      {
        OFFSET 0.037660 7.304252 -0.596017
        CHANNELS 3 Zrotation Xrotation Yrotation
        JOINT Head
        {
          OFFSET -2.522045 13.969204 -1.610471
          CHANNELS 3 Zrotation Xrotation Yrotation
          End Site
          {
            OFFSET 0 0 0
          }
        }
      }
      JOINT ShoulderLeft
      {
        OFFSET -16.086952 -3.723552 3.203574
        CHANNELS 3 Zrotation Xrotation Yrotation
        JOINT ElbowLeft
        {
          OFFSET -4.622766 -24.236463 1.504000
          CHANNELS 3 Zrotation Xrotation Yrotation
          JOINT WristLeft
          {
            OFFSET -2.045042 -20.929348 -6.493318
            CHANNELS 3 Zrotation Xrotation Yrotation
            JOINT HandLeft
            {
              OFFSET 0.600998 -4.158228 -0.912423
              CHANNELS 3 Zrotation Xrotation Yrotation
              JOINT HandTipLeft
              {
                OFFSET -0.328376 -5.588887 -1.447811
                CHANNELS 3 Zrotation Xrotation Yrotation
                End Site
                {
                  OFFSET 0 0 0
                }
              }
              JOINT ThumbLeft
              {
                OFFSET 3.663337 -0.185524 -1.083066
                CHANNELS 3 Zrotation Xrotation Yrotation
                End Site
                {
                  OFFSET 0 0 0
                }
              }
            }
          }
        }
      }
      JOINT ShoulderRight
      {
        OFFSET 15.291861 -2.385972 -5.460754
        CHANNELS 3 Zrotation Xrotation Yrotation
        JOINT ElbowRight
        {
          OFFSET 4.205145 -23.794026 -0.865585
          CHANNELS 3 Zrotation Xrotation Yrotation
          JOINT WristRight
          {
            OFFSET -5.012073 -22.186181 -7.397267
            CHANNELS 3 Zrotation Xrotation Yrotation
            JOINT HandRight
            {
              OFFSET -1.069128 -3.953929 0.418246
              CHANNELS 3 Zrotation Xrotation Yrotation
              JOINT HandTipRight
              {
                OFFSET -0.946655 -6.207832 -0.880672
                CHANNELS 3 Zrotation Xrotation Yrotation
                End Site
                {
                  OFFSET 0 0 0
                }
              }
              JOINT ThumbRight
              {
                OFFSET -2.821112 2.239347 -1.323136
                CHANNELS 3 Zrotation Xrotation Yrotation
                End Site
                {
                  OFFSET 0 0 0
                }
              }
            }
          }
        }
      }
    }
  }
  JOINT HipLeft
  {
    OFFSET -7.155402 0.791351 -1.691671
    CHANNELS 3 Zrotation Xrotation Yrotation
    JOINT KneeLeft
    {
      OFFSET 2.185927 -26.322408 4.918643
      CHANNELS 3 Zrotation Xrotation Yrotation
      JOINT AnkleLeft
      {
        OFFSET 2.416152 -34.110837 6.415308
        CHANNELS 3 Zrotation Xrotation Yrotation
        JOINT FootLeft
        {
          OFFSET -3.665506 -3.078741 -13.904812
          CHANNELS 3 Zrotation Xrotation Yrotation
          End Site
          {
            OFFSET 0 0 0
          }
        }
      }
    }
  }
  JOINT HipRight
  {
    OFFSET 7.908262 0.753602 -5.007200
    CHANNELS 3 Zrotation Xrotation Yrotation
    JOINT KneeRight
    {
      OFFSET 5.100063 -28.730369 0.916990
      CHANNELS 3 Zrotation Xrotation Yrotation
      JOINT AnkleRight
      {
        OFFSET -1.543455 -33.639103 7.485494
        CHANNELS 3 Zrotation Xrotation Yrotation
        JOINT FootRight
        {
          OFFSET -2.888238 -7.786348 -4.340481
          CHANNELS 3 Zrotation Xrotation Yrotation
          End Site
          {
            OFFSET 0 0 0
          }
        }
      }
    }
  }
}
MOTION
Frames: 14
Frame Time: 0.033333
-38.290551 69.402218 360.613640 0.000000 0.000000 12.412945 -0.000000 0.000000 -12.412945 -0.000000 0.000000 0.000000 -0.000000 0.000000 0.000000 0.000000 0.000000 0.000000 -0.000000 0.000000 0.000000 -0.000000 0.000000 0.000000 -0.000000 0.000000 0.000000 -0.000000 0.000000 0.000000 0.000000 0.000000 0.000000 0.000000 0.000000 0.000000 -0.000000 0.000000 0.000000 -0.000000 0.000000 0.000000 -0.000000 0.000000 0.000000 -0.000000 0.000000 0.000000 0.000000 0.000000 0.000000 0.000000 0.000000 0.000000 -0.000000 0.000000 -12.412945 -0.000000 0.000000 0.000000 -0.000000 0.000000 0.000000 0.000000 0.000000 0.000000 -0.000000 0.000000 -12.412945 -0.000000 0.000000 0.000000 -0.000000 0.000000 0.000000 0.000000 0.000000 0.000000
-38.230104 69.341059 360.571374 -0.482341 -0.339487 13.185722 0.547067 0.220499 -13.188203 -0.000000 0.000000 0.000000 0.393367 1.582749 0.326006 0.000000 0.000000 0.000000 1.543955 0.737170 -0.054886 0.697991 -0.158058 -0.699839 1.876364 2.487680 0.207501 -4.964780 -2.740997 0.508345 0.000000 0.000000 0.000000 0.000000 0.000000 0.000000 -0.000000 0.000000 0.000000 0.607261 -1.129073 0.058851 -2.785155 1.344453 -0.286743 0.403051 -3.580496 1.001614 0.000000 0.000000 0.000000 0.000000 0.000000 0.000000 0.547067 0.220499 -13.188203 -0.000000 0.000000 0.000000 2.650780 -7.509939 -4.207993 0.000000 0.000000 0.000000 -0.053068 -0.505803 -13.352963 0.416217 0.845248 0.160195 -1.127079 0.373956 0.490586 0.000000 0.000000 0.000000
-38.126186 69.293526 360.480019 -0.971635 -0.604960 13.947685 -0.190364 -0.000753 -13.987741 -0.212414 0.128308 -0.070684 1.995609 3.476978 0.687606 0.000000 0.000000 0.000000 4.164090 1.893891 -0.043512 1.296454 -0.296133 -1.262431 4.109477 5.101424 0.127112 -9.496298 -5.964659 0.654997 0.000000 0.000000 0.000000 0.000000 0.000000 0.000000 1.367548 0.525704 0.102655 1.096393 -2.060449 0.120658 -5.007614 3.024808 -0.576090 0.777011 -6.826837 1.843035 0.000000 0.000000 0.000000 0.000000 0.000000 0.000000 1.088822 0.352842 -13.956168 -0.000000 0.000000 0.000000 5.002597 -16.047867 -8.560694 0.000000 0.000000 0.000000 -0.125159 -1.087900 -14.290939 1.994821 2.100335 0.519468 -3.302857 0.195439 0.711076 0.000000 0.000000 0.000000
-37.978796 69.259619 360.339574 -1.468358 -0.797258 14.700741 -0.248609 0.009950 -14.763117 -0.287237 0.182897 -0.101035 2.707157 4.771557 0.939444 0.000000 0.000000 0.000000 5.779643 2.571613 -0.086263 1.763555 -0.413565 -1.691606 6.292036 7.502328 -0.146229 -13.206958 -9.308470 0.527408 0.000000 0.000000 0.000000 0.000000 0.000000 0.000000 1.996560 0.673040 0.147819 1.458108 -2.778897 0.179048 -6.687417 4.977934 -0.890258 1.093071 -9.762648 2.576582 0.000000 0.000000 0.000000 0.000000 0.000000 0.000000 1.622639 0.398300 -14.716598 -0.672683 0.456266 -0.091624 7.530593 -25.260083 -12.606605 0.000000 0.000000 0.000000 -0.215841 -1.742313 -15.228677 2.794167 3.083879 0.714669 -4.586706 0.122124 1.080793 0.000000 0.000000 0.000000
-37.787934 69.239338 360.150040 -1.972989 -0.917074 15.446657 -0.282951 0.026417 -15.531874 -0.342050 0.230947 -0.128815 3.232913 5.765681 1.140768 0.000000 0.000000 0.000000 7.113255 3.083019 -0.124987 2.077404 -0.509778 -1.991776 7.941536 9.320113 -0.433107 -15.610019 -12.416135 0.294594 0.000000 0.000000 0.000000 0.000000 0.000000 0.000000 2.591826 0.744863 0.190958 1.684333 -3.271590 0.228699 -7.841712 7.146159 -1.253723 1.334697 -12.399340 3.236725 0.000000 0.000000 0.000000 0.000000 0.000000 0.000000 2.145989 0.358005 -15.469154 -0.871782 0.516937 -0.123584 8.882005 -33.318132 -16.312234 0.000000 0.000000 0.000000 -0.324502 -2.465220 -16.167786 3.458311 4.015516 0.874683 -5.624199 -0.065511 1.461584 0.000000 0.000000 0.000000
-37.553600 69.232684 359.911416 -2.486015 -0.964946 16.187059 -0.293849 0.047677 -16.294759 -0.377410 0.272434 -0.154447 3.575776 6.457211 1.295874 0.000000 0.000000 0.000000 8.180498 3.435810 -0.151106 2.223405 -0.584817 -2.167002 8.621619 10.244719 -0.530196 -16.231846 -15.023204 0.151794 0.000000 0.000000 0.000000 0.000000 0.000000 0.000000 3.155199 0.741845 0.233424 1.768419 -3.528049 0.265726 -8.482915 9.474592 -1.690249 1.494501 -14.725715 3.842912 0.000000 0.000000 0.000000 0.000000 0.000000 0.000000 2.656422 0.232958 -16.213398 -1.060288 0.531605 -0.157082 9.619101 -39.786118 -19.335293 0.000000 0.000000 0.000000 -0.450413 -3.253001 -17.109650 3.985123 4.890164 1.005372 -6.414263 -0.368301 1.854687 0.000000 0.000000 0.000000
-37.254661 69.238882 359.561007 -3.087715 -0.894046 17.167468 -0.262281 0.102312 -17.297790 -0.386007 0.328517 -0.180500 3.644914 6.733885 1.405171 0.000000 0.000000 0.000000 9.284490 3.806948 -0.200539 1.976903 -0.795838 -2.187778 9.140395 10.798351 -0.577764 -15.803636 -19.216066 0.204463 0.000000 0.000000 0.000000 0.000000 0.000000 0.000000 3.750857 0.564110 0.284956 1.768275 -3.553124 0.271932 -8.342443 12.884174 -2.417772 0.768358 -16.685793 4.415313 0.000000 0.000000 0.000000 0.000000 0.000000 0.000000 3.356867 -0.864849 -17.179225 -1.630749 1.216292 -0.187790 9.917984 -45.043236 -22.147315 0.000000 0.000000 0.000000 -0.556293 -4.302575 -18.328929 4.241002 5.689192 1.125468 -6.822397 -0.799977 2.323969 0.000000 0.000000 0.000000
-36.895303 69.273594 359.169907 -3.700846 -0.777075 18.014989 -0.187236 0.164376 -18.164420 -0.366207 0.373525 -0.203382 3.693137 6.671139 1.463127 0.000000 0.000000 0.000000 9.900892 3.885408 -0.198541 1.602751 -0.961247 -2.051205 9.545466 11.487662 -0.653592 -12.702598 -23.622318 0.486699 0.000000 0.000000 0.000000 0.000000 0.000000 0.000000 4.729725 1.045330 0.441076 1.143556 -3.890924 0.141409 -7.271529 15.805849 -3.219879 -0.165828 -20.420695 5.008986 0.000000 0.000000 0.000000 0.000000 0.000000 0.000000 3.571279 -1.447822 -18.090003 -1.525817 1.448506 -0.139920 9.674916 -50.880813 -25.623773 0.000000 0.000000 0.000000 -0.665024 -5.306349 -19.407541 4.503630 6.491653 1.225163 -7.623259 -1.845974 3.159874 0.000000 0.000000 0.000000
-36.495221 69.310516 358.766367 -4.237331 -0.621659 18.626365 -0.084104 0.179039 -18.788734 -0.323433 0.397533 -0.219710 3.820438 6.636694 1.523332 0.000000 0.000000 0.000000 10.104745 3.759736 -0.162379 1.145317 -0.972978 -1.843219 5.737536 9.213962 0.410951 -5.487932 -23.381899 0.830884 0.000000 0.000000 0.000000 0.000000 0.000000 0.000000 4.863541 1.078948 0.540913 0.907817 -3.576190 0.105002 -5.771201 18.307335 -4.120019 -0.865083 -22.773375 5.408797 0.000000 0.000000 0.000000 0.000000 0.000000 0.000000 3.545944 -2.037895 -18.797381 -1.292769 1.667113 -0.069362 10.336386 -46.781561 -22.428124 0.000000 0.000000 0.000000 -0.928298 -6.215253 -20.248501 4.609552 7.215804 1.284457 -6.887662 -2.319111 3.180501 0.000000 0.000000 0.000000
-36.139811 69.348007 358.424121 -4.662673 -0.461865 19.031983 -0.085982 0.172217 -19.205451 -0.334298 0.371244 -0.240826 3.640527 6.483404 1.522278 0.000000 0.000000 0.000000 10.056535 3.458990 -0.081084 1.088803 -0.860010 -1.688178 0.029942 3.388240 1.457776 1.508865 -18.623812 0.625898 0.000000 0.000000 0.000000 0.000000 0.000000 0.000000 4.928740 1.050835 0.615994 0.839491 -3.051968 0.064164 -5.874227 19.164867 -4.494412 0.013818 -22.736024 5.767849 0.000000 0.000000 0.000000 0.000000 0.000000 0.000000 3.453106 -2.531815 -19.292553 -1.067937 1.848815 -0.005942 10.892171 -42.675468 -18.258393 0.000000 0.000000 0.000000 -1.145701 -6.970670 -20.844494 5.068582 7.970182 1.357662 -8.873569 -3.491289 4.431693 0.000000 0.000000 0.000000
-35.843942 69.371191 358.158533 -5.075747 -0.390506 19.266960 -0.119794 0.151225 -19.454921 -0.342306 0.331120 -0.262820 3.383390 6.354632 1.492169 0.000000 0.000000 0.000000 9.512038 2.908113 0.049286 1.105686 -0.475807 -1.444187 -5.267136 -1.090735 1.944693 7.502297 -14.276433 -0.403891 0.000000 0.000000 0.000000 0.000000 0.000000 0.000000 4.790162 0.861010 0.643823 0.929229 -2.172485 0.071931 -5.955146 17.959796 -4.414159 2.020117 -20.505898 5.895262 0.000000 0.000000 0.000000 0.000000 0.000000 0.000000 3.591045 -2.878849 -19.573227 -1.267054 1.852330 -0.029706 10.614298 -34.525612 -14.203954 0.000000 0.000000 0.000000 -1.173335 -7.581047 -21.234755 5.257608 8.499246 1.411910 -10.043865 -4.241773 5.253098 0.000000 0.000000 0.000000
-35.557661 69.368291 357.981081 -5.467707 -0.397347 19.305040 -0.122932 0.129360 -19.508372 -0.330819 0.298085 -0.280823 3.471066 6.264677 1.473480 0.000000 0.000000 0.000000 8.837824 2.354849 0.168202 1.021980 -0.078539 -1.150067 -9.193762 -4.794144 1.861359 10.305140 -7.596887 -1.473259 0.000000 0.000000 0.000000 0.000000 0.000000 0.000000 4.666685 0.746330 0.660860 0.848254 -1.708308 0.203366 -7.081531 15.054484 -3.905555 4.105657 -18.405583 5.746494 0.000000 0.000000 0.000000 0.000000 0.000000 0.000000 3.857235 -3.055605 -19.632552 -1.534992 1.800670 -0.072566 9.465834 -25.021373 -9.333054 0.000000 0.000000 0.000000 -1.152945 -7.931093 -21.386138 5.385139 8.859820 1.432897 -10.346938 -4.628359 5.590582 0.000000 0.000000 0.000000
-35.236005 69.386815 357.797676 -5.850067 -0.411553 19.256535 -0.163030 0.060187 -19.478595 -0.300367 0.276571 -0.297306 3.774647 6.092261 1.437576 0.000000 0.000000 0.000000 7.979888 1.765630 0.281715 1.340739 0.056408 -0.878630 -11.630213 -8.881150 1.156767 8.568433 0.490697 -1.009729 0.000000 0.000000 0.000000 0.000000 0.000000 0.000000 4.458776 0.540188 0.650365 1.388621 -1.729708 0.327908 -8.433255 12.611870 -3.332952 6.402772 -14.514535 5.198805 0.000000 0.000000 0.000000 0.000000 0.000000 0.000000 3.933460 -3.197485 -19.651196 -1.545220 1.835486 -0.063500 7.573316 -15.989124 -4.510276 0.000000 0.000000 0.000000 -1.116649 -8.206516 -21.435887 5.495230 9.090300 1.446824 -10.500695 -4.638679 5.785075 0.000000 0.000000 0.000000
-35.012982 69.387304 357.771088 -6.256196 -0.615627 19.211238 -0.120504 0.077078 -19.455761 -0.300539 0.254344 -0.314933 4.230730 5.782196 1.362741 0.000000 0.000000 0.000000 7.336035 1.268642 0.386652 1.620699 -0.024851 -0.648554 -13.398000 -11.866724 0.420641 4.262551 6.154209 1.180688 0.000000 0.000000 0.000000 0.000000 0.000000 0.000000 4.230902 0.187941 0.592564 2.336423 -1.791425 0.425139 -10.256678 8.458547 -2.346166 5.971585 -9.677091 3.940820 0.000000 0.000000 0.000000 0.000000 0.000000 0.000000 4.251375 -2.962510 -19.641076 -1.511615 1.721035 -0.069516 5.441758 -9.014035 -0.063592 0.000000 0.000000 0.000000 -0.727332 -8.139806 -21.402970 5.255855 9.030288 1.429408 -9.628664 -3.655384 5.286150 0.000000 0.000000 0.000000
